<svg xmlns="http://www.w3.org/2000/svg" width="52" height="52" fill="none"><rect width="52" height="52" fill="#EBD96B" rx="15"/><path fill="#000" d="M20.875 34h-3.398V21.32h3.398zm-3.598-15.96q0-.763.504-1.255.516-.492 1.395-.492.867 0 1.383.492.515.492.515 1.254 0 .774-.527 1.266-.515.492-1.371.492-.855 0-1.383-.492-.516-.492-.516-1.266m9.996 3.28.105 1.465q1.36-1.7 3.645-1.7 2.016 0 3 1.185.984 1.183 1.008 3.539V34h-3.387v-8.11q0-1.078-.469-1.558-.468-.492-1.558-.492-1.43 0-2.145 1.219V34h-3.387V21.32z"/></svg>