<svg xmlns="http://www.w3.org/2000/svg" width="237" height="60" fill="none"><path fill="#000" d="M31.172 18.204a46.8 46.8 0 0 0-28.956-.782 2.89 2.89 0 0 0-2.11 3.581c.519 2.085 1.277 4.48 2.187 6.652.015.05.04.026.04-.024-.132-1.019.651-2.305 2.187-2.773a35.85 35.85 0 0 1 22.644.3 2.136 2.136 0 0 0 2.73-1.383c.91-2.93 1.278-4.918 1.369-5.416.015-.093-.067-.128-.091-.154M8.669 24.65c-1.118.234-2.664.6-3.824.986-2.319.8-2.211 3.622-.976 4.522.09-.523.651-1.235 1.276-1.476 2.316-.91 4.802-1.454 7.315-1.678-1.277-.519-2.523-1.262-3.774-2.355zm18.464 5.65a27.54 27.54 0 0 0-21.418-.848c-1.104.417-1.795 1.76-1.104 3.036a50 50 0 0 0 4.1 6.25c-.218-.757.168-2.16 1.653-2.62 4.105-1.26 8.413-.726 11.276.433a2.174 2.174 0 0 0 2.595-.833 52 52 0 0 0 2.98-5.234c.04-.08 0-.141-.082-.183M20.48 40.418a12.9 12.9 0 0 1-3.255-2.345c-.442-.443-1.094-1.078-1.78-1.836-1.568 0-3.09.157-4.716.677-1.51.472-1.652 2.217-.991 3.128 1.118 1.393 1.902 2.145 3.153 3.438a3.57 3.57 0 0 0 4.974.024c.976-.976 1.577-1.628 2.68-2.879.066-.066.04-.182-.066-.208M66.265 15.68v7.04h-11.12v3.92h8v6.68h-8V44h-8.88V15.68zm22.367 24.04h-9.44l-1.4 4.28h-9.32l10.36-28.32h10.24L99.392 44h-9.36zm-2.16-6.68-2.56-7.88-2.56 7.88zm27.218 11.24q-5.08 0-8.4-2.36-3.28-2.4-3.56-7h9.44q.2 2.44 2.16 2.44.72 0 1.2-.32.52-.36.52-1.08 0-1-1.08-1.6-1.08-.64-3.36-1.44-2.72-.96-4.52-1.88-1.76-.92-3.04-2.68t-1.24-4.52q0-2.76 1.4-4.68 1.44-1.96 3.88-2.96 2.48-1 5.56-1 5.2 0 8.24 2.4 3.08 2.4 3.24 6.76h-9.56q-.04-1.2-.6-1.72a1.93 1.93 0 0 0-1.36-.52q-.56 0-.92.4-.36.36-.36 1.04 0 .96 1.04 1.6 1.08.6 3.4 1.48 2.68 1 4.4 1.92a9.3 9.3 0 0 1 3.04 2.56q1.28 1.64 1.28 4.12 0 2.6-1.28 4.68-1.28 2.04-3.72 3.2t-5.8 1.16m41.32-28.6V44h-8.88V32.96h-8.44V44h-8.88V15.68h8.88v10.2h8.44v-10.2zm14.075 0V44h-8.88V15.68zm19.011 28.6q-4 0-7.36-1.88-3.321-1.88-5.28-5.2t-1.96-7.48 1.96-7.48q1.959-3.32 5.28-5.16 3.36-1.88 7.36-1.88t7.32 1.88q3.32 1.84 5.24 5.16 1.96 3.32 1.96 7.48t-1.96 7.48a13.74 13.74 0 0 1-5.28 5.2q-3.32 1.88-7.28 1.88m0-8.28q2.64 0 4.08-1.68 1.44-1.72 1.44-4.6 0-2.92-1.44-4.6-1.44-1.72-4.08-1.72-2.68 0-4.12 1.72-1.44 1.68-1.44 4.6 0 2.88 1.44 4.6 1.44 1.68 4.12 1.68m46.083 8h-8.88l-9.4-14.24V44h-8.88V15.68h8.88l9.4 14.48V15.68h8.88z"/></svg>