<svg xmlns="http://www.w3.org/2000/svg" width="52" height="52" fill="none"><rect width="52" height="52" fill="#EBD96B" rx="15"/><path fill="#000" d="M38.43 21.06c.016.222.016.444.016.667 0 6.773-5.155 14.577-14.578 14.577-2.903 0-5.6-.84-7.868-2.3.413.048.809.064 1.237.064 2.396 0 4.6-.81 6.361-2.19a5.13 5.13 0 0 1-4.79-3.552c.317.047.634.079.967.079.46 0 .92-.064 1.349-.175a5.124 5.124 0 0 1-4.109-5.028v-.064a5.16 5.16 0 0 0 2.316.65 5.12 5.12 0 0 1-2.284-4.267c0-.951.254-1.824.698-2.585a14.56 14.56 0 0 0 10.565 5.362 5.8 5.8 0 0 1-.127-1.174A5.12 5.12 0 0 1 33.306 16c1.476 0 2.808.619 3.744 1.618a10.1 10.1 0 0 0 3.252-1.237 5.1 5.1 0 0 1-2.253 2.823 10.3 10.3 0 0 0 2.95-.793 11 11 0 0 1-2.569 2.65"/></svg>