<svg xmlns="http://www.w3.org/2000/svg" fill="none" viewBox="0 0 103 76"><path fill="currentColor" d="M99.27 13.03c-.944-5.21-5.441-9.004-10.657-10.189C80.798 1.184 66.343 0 50.703 0S20.388 1.184 12.568 2.841C7.357 4.021 2.85 7.58 1.906 13.031A155.4 155.4 0 0 0 .009 37.904 129 129 0 0 0 2.137 62.78c.953 5.21 5.45 9.005 10.658 10.19 8.295 1.655 22.505 2.84 38.149 2.84s29.854-1.185 38.146-2.842c5.21-1.184 9.708-4.738 10.658-10.189a182 182 0 0 0 2.373-24.874 166 166 0 0 0-2.85-24.875M37.914 54.49V21.322l28.902 16.583z"/></svg>